# xmcd
#
# Track frame offsets: 
#        150
#        16597
#        35427
#        55840
#        63715
#        79290
#        94675
#        111855
#        124167
#        145500
#        158172
#        172502
#        183215
#        202200
#        215757
#        229290
#        242140
#        265367
#
# Disc length: 3730 seconds
#
# Revision: 2
# Processed by: cddbd v1.5.2PL0 Copyright (c) Steve Scherf et al.
# Submitted via: ExactAudioCopy v0.99pb5
#
DISCID=f90e9012
DTITLE=Barrelhouse - Chuck
DYEAR=1999
DGENRE=Blues
TTITLE0=On The House
TTITLE1=Any Old Lonesome Day
TTITLE2=Hangin' Round The House
TTITLE3=Floral Park Boogie
TTITLE4=Depression Blues
TTITLE5=Salute To Sunnyland Slim
TTITLE6=Cool Disposiotion
TTITLE7=Jack Knife
TTITLE8=Everybody's Got To Change Sometimes
TTITLE9=Shake Dancer
TTITLE10=Going Back To Memphis
TTITLE11=Lonesome Child
TTITLE12=Pinetops Blues
TTITLE13=You Don't Love Me
TTITLE14=Walkin' On The Ceiling
TTITLE15=Church Street Blues
TTITLE16=Wah-Wah Blues
TTITLE17=Answering Machine
EXTD=
EXTT0=
EXTT1=
EXTT2=
EXTT3=
EXTT4=
EXTT5=
EXTT6=
EXTT7=
EXTT8=
EXTT9=
EXTT10=
EXTT11=
EXTT12=
EXTT13=
EXTT14=
EXTT15=
EXTT16=
EXTT17=
PLAYORDER=
